<?xml version="1.0" standalone="no"?>
<!DOCTYPE svg PUBLIC "-//W3C//DTD SVG 1.1//EN"
"http://www.w3.org/Graphics/SVG/1.1/DTD/svg11.dtd">
<svg height="600" version="1.1" width="800" xmlns="http://www.w3.org/2000/svg"><g><rect fill="#f9f9f9" height="600" width="800" x="0" y="0" /><g transform="translate(40 40)"><g transform="translate(32 0)"><text fill="#333" font-family="Monaco" font-size="16" x="0" y="0">Line</text><g transform="translate(0 20)"><g transform="translate(0 0)"><rect fill="#e41a1c" height="10" width="10" x="0" y="-10" /><text fill="#666" font-family="Monaco" font-size="14" x="14" y="0">bass</text></g><g transform="translate(78 0)"><rect fill="#377eb8" height="10" width="10" x="0" y="-10" /><text fill="#666" font-family="Monaco" font-size="14" x="14" y="0">mid</text></g><g transform="translate(148 0)"><rect fill="#4daf4a" height="10" width="10" x="0" y="-10" /><text fill="#666" font-family="Monaco" font-size="14" x="14" y="0">treble</text></g></g></g><g transform="translate(0 38)"><g transform="translate(32 0)"><g class="axis bottom"><g class="tick"><line stroke="#eee" stroke-width="1" x1="137.6" x2="137.6" y1="0" y2="464.0" /><text dy="1em" fill="#9c9c9c" font-family="Monaco" text-anchor="middle" x="137.6" y="468.0">100</text></g><g class="tick"><line stroke="#eee" stroke-width="1" x1="275.2" x2="275.2" y1="0" y2="464.0" /><text dy="1em" fill="#9c9c9c" font-family="Monaco" text-anchor="middle" x="275.2" y="468.0">200</text></g><g class="tick"><line stroke="#eee" stroke-width="1" x1="412.8" x2="412.8" y1="0" y2="464.0" /><text dy="1em" fill="#9c9c9c" font-family="Monaco" text-anchor="middle" x="412.8" y="468.0">300</text></g><g class="tick"><line stroke="#eee" stroke-width="1" x1="550.4" x2="550.4" y1="0" y2="464.0" /><text dy="1em" fill="#9c9c9c" font-family="Monaco" text-anchor="middle" x="550.4" y="468.0">400</text></g><g class="tick"><line stroke="#eee" stroke-width="1" x1="688" x2="688" y1="0" y2="464.0" /><text dy="1em" fill="#9c9c9c" font-family="Monaco" text-anchor="middle" x="688" y="468.0">500</text></g><g class="tick"><line stroke="#a8a8a8" stroke-width="1" x1="0" x2="0" y1="0" y2="464.0" /><text dy="1em" fill="#9c9c9c" font-family="Monaco" text-anchor="middle" x="0" y="468.0">0</text></g></g><g class="axis left"><g class="tick"><line stroke="#eee" stroke-width="1" x1="-4" x2="688.0" y1="306.6666666666666666666666667" y2="306.6666666666666666666666667" /><text dy="0.32em" fill="#9c9c9c" font-family="Monaco" text-anchor="end" x="-8" y="306.6666666666666666666666667">100</text></g><g class="tick"><line stroke="#eee" stroke-width="1" x1="-4" x2="688.0" y1="153.3333333333333333333333333" y2="153.3333333333333333333333333" /><text dy="0.32em" fill="#9c9c9c" font-family="Monaco" text-anchor="end" x="-8" y="153.3333333333333333333333333">200</text></g><g class="tick"><line stroke="#eee" stroke-width="1" x1="-4" x2="688.0" y1="0" y2="0" /><text dy="0.32em" fill="#9c9c9c" font-family="Monaco" text-anchor="end" x="-8" y="0">300</text></g><g class="tick"><line stroke="#a8a8a8" stroke-width="1" x1="-4" x2="688.0" y1="460" y2="460" /><text dy="0.32em" fill="#9c9c9c" font-family="Monaco" text-anchor="end" x="-8" y="460">0</text></g></g><g><g class="series lines"><path d="M 0 421.2809435228506724039713542 L 1.376 414.2085226058959960937500 L 2.752 407.1417796651522318522135417 L 4.128 420.0013316392898559570312500 L 5.504 413.7312446832656860351562500 L 6.88 430.6122547825177510579427083 L 8.256 424.5895062198241551717122396 L 9.632 428.0539275656143824259440104 L 11.008 421.6427654772996902465820312 L 12.384 431.5138770818710327148437500 L 13.76 421.8960505445798238118489583 L 15.136 434.6817843039830525716145833 L 16.512 419.6397096316019694010416667 L 17.888 427.9006049116452534993489583 L 19.264 423.5552339474360148111979167 L 20.64 422.3742513616879781087239583 L 22.016 433.4321876486142476399739583 L 23.392 450.1362991521755854288736979 L 24.768 446.1759346045553684234619141 L 26.144 427.7285193185011545817057292 L 27.52 438.9936644256114959716796875 L 28.896 437.525056219100952148437500 L 30.272 439.2621434817711512247721354 L 31.648 428.3063428839047749837239583 L 33.024 418.8410170733928680419921875 L 34.40 422.6044755369424819946289062 L 35.776 422.9006796757380167643229167 L 37.152 422.5860363602638244628906250 L 38.528 421.7349442243576049804687500 L 39.904 421.7514132936795552571614583 L 41.28 434.4007460276285807291666667 L 42.656 428.4254291961590449015299479 L 44.032 421.1186299820741017659505208 L 45.408 405.0702858428160349527994792 L 46.784 401.54612302780151367187500 L 48.16 419.4741260210673014322916667 L 49.536 416.6484922846158345540364583 L 50.912 416.6129888137181599934895833 L 52.288 407.9054486155509948730468750 L 53.664 378.9250828941663106282552083 L 55.04 397.1236240684986114501953125 L 56.416 412.6901372750600179036458333 L 57.792 391.5533206164836883544921875 L 59.168 409.7328193465868631998697917 L 60.544 408.8687330245971679687500 L 61.92 414.7985057036081949869791667 L 63.296 425.1128000924984614054361979 L 64.672 424.8915676494439442952473958 L 66.048 428.4915431201457977294921875 L 67.424 438.7908401538928349812825521 L 68.8 426.0029483358065287272135417 L 70.176 431.0773923883835474650065104 L 71.552 423.5633190761009852091471354 L 72.928 427.3190769275029500325520833 L 74.304 435.371204757690429687500 L 75.68 425.2636745125055313110351562 L 77.056 412.6681934893131256103515625 L 78.432 414.9673435956239700317382812 L 79.808 417.7867296298344930013020833 L 81.184 413.1774884040157000223795573 L 82.56 420.9645949592192967732747396 L 83.936 414.3563077787558237711588542 L 85.312 409.7888936857382456461588542 L 86.688 406.5331152200698852539062500 L 88.064 419.054339361190795898437500 L 89.44 417.2004527330398559570312500 L 90.816 432.9339026808738708496093750 L 92.192 429.2495876510938008626302083 L 93.568 428.0787199815114339192708333 L 94.944 427.4562497735023498535156250 L 96.32 422.027439260482788085937500 L 97.696 422.8583601931730906168619792 L 99.072 424.7624634583791097005208333 L 100.448 427.6428013126055399576822917 L 101.824 423.5004542698462804158528646 L 103.20 440.1463784098625183105468750 L 104.576 436.3979833106199900309244792 L 105.952 437.9571401417255401611328125 L 107.328 436.9495154420534769694010417 L 108.704 440.7146407683690388997395833 L 110.08 441.8373085419336954752604167 L 111.456 439.083911085128784179687500 L 112.832 429.5954539179801940917968750 L 114.208 424.4445881386597951253255208 L 115.584 434.1772697071234385172526042 L 116.96 439.6318114673097928365071614 L 118.336 431.7551838735739390055338542 L 119.712 440.5306016902128855387369792 L 121.088 437.5689172635475794474283854 L 122.464 447.3625818858544031778971354 L 123.84 441.2330673734347025553385417 L 125.216 444.5827286290625731150309245 L 126.592 449.1577715386946996053059896 L 127.968 441.4784993951519330342610677 L 129.344 442.0284613927205403645833333 L 130.72 440.4065302809079488118489583 L 132.096 442.1090726278722286224365234 L 133.472 441.7858949318528175354003906 L 134.848 438.0358267093698183695475260 L 136.224 443.8133534332116444905598958 L 137.6 445.4610497906804084777832031 L 138.976 439.1795333445072174072265625 L 140.352 440.6267361775040626525878906 L 141.728 440.5917591405411561330159505 L 143.104 439.5693533062934875488281250 L 144.48 436.0724827557802200317382812 L 145.856 436.6574233611424763997395833 L 147.232 446.9677975962559382120768229 L 148.608 443.9953285425901412963867188 L 149.984 443.3172709872325261433919271 L 151.36 443.9091501404841740926106771 L 152.736 440.6850329736868540445963542 L 154.112 443.0947078506151835123697917 L 155.488 433.6170528580745061238606771 L 156.864 444.2806928068399429321289062 L 158.24 441.0765143831570943196614583 L 159.616 443.9816032747427622477213542 L 160.992 434.8211233084400494893391927 L 162.368 431.8969097981850306193033854 L 163.744 433.0914670348167419433593750 L 165.12 430.4995815038681030273437500 L 166.496 425.8035775383313496907552083 L 167.872 429.4298673428595066070556641 L 169.248 423.9223342016339302062988281 L 170.624 418.4259884769717852274576823 L 172.00 430.5288101057211558024088542 L 173.376 423.92834854125976562500 L 174.752 436.9155580798784891764322917 L 176.128 434.0681646704673767089843750 L 177.504 428.7246349354585011800130208 L 178.88 434.0661255379517873128255208 L 180.256 431.9263138989607493082682292 L 181.632 433.8048652430375417073567708 L 183.008 444.0231180806954701741536458 L 184.384 444.3357962469259897867838542 L 185.76 446.1319583296775817871093750 L 187.136 438.3588031848271687825520833 L 188.512 443.1516873310009638468424479 L 189.888 433.1564110383391380310058594 L 191.264 432.0066080947717030843098958 L 192.64 427.8699859817822774251302083 L 194.016 428.2492790013551712036132812 L 195.392 424.9662264128526051839192708 L 196.768 429.9931551774342854817708333 L 198.144 441.3004877259333928426106771 L 199.52 435.9470432271560033162434896 L 200.896 445.5808680186669031778971354 L 202.272 425.1046146591504414876302083 L 203.648 430.8506878336270650227864583 L 205.024 432.5180358777443567911783854 L 206.4 439.8066230515638987223307292 L 207.776 441.5733413058022658030192057 L 209.152 441.8927781169613202412923177 L 210.528 439.1008517692486445109049479 L 211.904 451.4195033142964045206705729 L 213.28 448.2622917359073956807454427 L 214.656 446.0977258379260698954264323 L 216.032 446.0668478295207023620605469 L 217.408 449.2692812601725260416666667 L 218.784 440.4310422092676162719726562 L 220.16 444.5726564794778823852539062 L 221.536 449.1088998640576998392740885 L 222.912 446.0694775943954785664876302 L 224.288 435.8747537106275558471679688 L 225.664 448.9847921942671140034993490 L 227.04 443.6595480372508366902669271 L 228.416 447.9234893977642059326171875 L 229.792 446.2321773767471313476562500 L 231.168 448.2413615529735883076985677 L 232.544 448.5289968828981121381123861 L 233.92 440.1998899757862091064453125 L 235.296 445.6449521551529566446940104 L 236.672 447.2322169631719589233398438 L 238.048 448.4755302413056294123331706 L 239.424 448.6667522514859835306803385 L 240.80 448.2688716631382703781127930 L 242.176 438.3301945070425669352213542 L 243.552 448.5180838547646999359130859 L 244.928 447.7130270272493362426757812 L 246.304 448.1029899289210637410481771 L 247.68 449.0358842238783836364746094 L 249.056 442.4107050607601801554361979 L 250.432 438.7143106967210769653320312 L 251.808 442.9223212520281473795572917 L 253.184 444.1757301822304725646972656 L 254.56 440.3607219090064366658528646 L 255.936 422.9286453068256378173828125 L 257.312 425.2815230339765548706054688 L 258.688 428.3902331968148549397786458 L 260.064 422.4332863569259643554687500 L 261.44 416.8429207344849904378255208 L 262.816 410.7593106945355733235677083 L 264.192 412.8693116446336110432942708 L 265.568 393.9873088916142781575520833 L 266.944 394.3192907969156901041666667 L 268.32 412.3719470580418904622395833 L 269.696 400.6445803324381510416666667 L 271.072 418.5543629686037699381510417 L 272.448 384.0803955753644307454427083 L 273.824 370.2727578878402709960937500 L 275.2 402.5889737268288930257161458 L 276.576 420.100154829025268554687500 L 277.952 428.2468671878178914388020833 L 279.328 425.8769450902938842773437500 L 280.704 413.7311351021130879720052083 L 282.08 419.5711997965971628824869792 L 283.456 422.1269318754474322001139323 L 284.832 417.7330247660477956136067708 L 286.208 418.7619733730951944986979167 L 287.584 423.9037382046381632486979167 L 288.96 414.8726361195246378580729167 L 290.336 393.5820502797762552897135417 L 291.712 395.2182083884874979654947917 L 293.088 403.2088921288649241129557292 L 294.464 388.5799105266729990641276042 L 295.84 374.9632063905398050944010417 L 297.216 392.8964841191967328389485677 L 298.592 405.6651733597119649251302083 L 299.968 409.7652499755223592122395833 L 301.344 401.5720521310965220133463542 L 302.72 387.2067716377476851145426432 L 304.096 395.0677605032920837402343750 L 305.472 387.0045592074592908223470052 L 306.848 387.795130205154418945312500 L 308.224 388.1046306093533833821614583 L 309.60 360.6344112515449523925781250 L 310.976 349.6647672136624654134114583 L 312.352 333.2994101007779439290364583 L 313.728 336.6458695749441782633463542 L 315.104 322.5025490363438924153645833 L 316.48 324.6634626785914103190104167 L 317.856 333.9911361455917358398437500 L 319.232 353.2578815698623657226562500 L 320.608 388.6896887699762980143229167 L 321.984 394.1000926653544108072916667 L 323.36 417.6168857892354329427083333 L 324.736 421.2254821161429087320963542 L 326.112 422.5022472659746805826822917 L 327.488 419.9183103213707605997721354 L 328.864 420.9922497600317001342773438 L 330.24 419.0841420074303944905598958 L 331.616 421.7329360286394755045572917 L 332.992 425.1739677732189496358235677 L 334.368 430.5362493202090263366699219 L 335.744 421.8954113821188608805338542 L 337.12 394.0043482581774393717447917 L 338.496 358.7269784192244211832682292 L 339.872 280.2577846407890319824218750 L 341.248 298.4023081103960673014322917 L 342.624 322.7834257284800211588541667 L 344.0 356.6184541185696919759114583 L 345.376 357.2490106662114461263020833 L 346.752 368.1734291275342305501302083 L 348.128 361.1209844708442687988281250 L 349.504 377.0990450501441955566406250 L 350.88 357.5200804849465688069661458 L 352.256 362.1954536393284797668457031 L 353.632 334.5097671071688334147135417 L 355.008 349.183253097534179687500 L 356.384 353.02214097976684570312500 L 357.76 344.3693351507186889648437500 L 359.136 334.6906265268723169962565104 L 360.512 344.4380890528361002604166667 L 361.888 345.7037430485089619954427083 L 363.264 404.3438459237416585286458333 L 364.64 398.3210544516642888387044271 L 366.016 395.6681390961011250813802083 L 367.392 405.6211173894504706064860026 L 368.768 385.7518381754557291666666667 L 370.144 383.2443093856175740559895833 L 371.52 358.6745424667994181315104167 L 372.896 389.9159452567497889200846354 L 374.272 396.4729225476582845052083333 L 375.648 403.2049709240595499674479167 L 377.024 412.0207513451576232910156250 L 378.40 417.2531431943178176879882812 L 379.776 383.1033583203951517740885417 L 381.152 371.7455709854761759440104167 L 382.528 381.4102603276570638020833333 L 383.904 360.5661741813023885091145833 L 385.28 340.3222569704055786132812500 L 386.656 337.8796415328979492187500 L 388.032 367.2153198917706807454427083 L 389.408 382.012045288085937500 L 390.784 409.0931331992149353027343750 L 392.16 411.5313582162062327067057292 L 393.536 413.0168346087137858072916667 L 394.912 425.8314120193322499593098958 L 396.288 428.6541745285193125406901042 L 397.664 424.8881221493085225423177083 L 399.04 435.8424245059490203857421875 L 400.416 400.9945509115854899088541667 L 401.792 394.4795729736487070719401042 L 403.168 387.7056505223115285237630208 L 404.544 387.7058762192726135253906250 L 405.92 397.0114816506703694661458333 L 407.296 386.0049853523572285970052083 L 408.672 394.9528880159060160319010417 L 410.048 395.1881577452023824055989583 L 411.424 395.1606873313585917154947917 L 412.8 408.8454982558886210123697917 L 414.176 386.9850145657857259114583333 L 415.552 373.9581413110097249348958333 L 416.928 392.8151939709981282552083333 L 418.304 369.5179674784342447916666667 L 419.68 366.0789770483970642089843750 L 421.056 358.5583056529362996419270833 L 422.432 385.4386628041664759318033854 L 423.808 406.4964929978052775065104167 L 425.184 388.0534212072690327962239583 L 426.56 384.7461871246496836344401042 L 427.936 380.9719310561815897623697917 L 429.312 390.9180712719758351643880208 L 430.688 400.7726870745420455932617188 L 432.064 390.1876733620961507161458333 L 433.44 379.836776971817016601562500 L 434.816 389.4171817739804585774739583 L 436.192 381.1372748494148254394531250 L 437.568 393.8409951473275820414225260 L 438.944 385.9525505423545837402343750 L 440.32 395.3338207999865214029947917 L 441.696 416.4289155999819437662760417 L 443.072 405.3391782045364379882812500 L 444.448 407.9084080378214518229166667 L 445.824 376.0691678365071614583333333 L 447.20 363.3306006749471028645833333 L 448.576 370.2002477695544560750325521 L 449.952 334.0512319485346476236979167 L 451.328 350.5563412229220072428385417 L 452.704 339.9552343209584554036458333 L 454.08 345.5616248846054077148437500 L 455.456 349.5664476950963338216145833 L 456.832 371.2338620066642761230468750 L 458.208 377.8489459832509358723958333 L 459.584 382.8641484220822652180989583 L 460.96 385.8520192941029866536458333 L 462.336 376.2284235239028930664062500 L 463.712 385.2781417012214660644531250 L 465.088 395.5359709968169530232747396 L 466.464 379.1669105847676595052083333 L 467.84 378.9929908553759256998697917 L 469.216 357.4862704038619995117187500 L 470.592 324.2985245843728383382161458 L 471.968 373.6893329173326492309570312 L 473.344 366.0610059678554534912109375 L 474.72 365.4528993447621663411458333 L 476.096 373.2191631237665812174479167 L 477.472 381.9961820224920908610026042 L 478.848 398.8318316022555033365885417 L 480.224 389.5329215655724207560221354 L 481.6 397.6664428989092508951822917 L 482.976 394.5114546457926432291666667 L 484.352 387.6630322734514872233072917 L 485.728 396.4156581242879231770833333 L 487.104 414.8635347604751586914062500 L 488.48 409.9941224137941996256510417 L 489.856 408.6224042812983194986979167 L 491.232 393.5905064900716145833333333 L 492.608 414.3150646865367889404296875 L 493.984 407.3796779712041219075520833 L 495.36 413.7063303709030151367187500 L 496.736 410.6738921403884887695312500 L 498.112 398.2031948725382486979166667 L 499.488 393.6826164861520131429036458 L 500.864 392.3662851030627886454264323 L 502.24 405.4714790304501851399739583 L 503.616 393.5608107288678487141927083 L 504.992 410.2336093266805013020833333 L 506.368 411.4717987577120463053385417 L 507.744 424.4608387311299641927083333 L 509.12 428.3275964637597401936848958 L 510.496 434.711883020401000976562500 L 511.872 419.8882391373316446940104167 L 513.248 418.0786545515060424804687500 L 514.624 420.0686013976732889811197917 L 516.00 378.6175601601600646972656250 L 517.376 387.0734896938006083170572917 L 518.752 375.1365470717350641886393229 L 520.128 385.6843576629956563313802083 L 521.504 400.1338248650232950846354167 L 522.88 413.7020585338274637858072917 L 524.256 410.2483972986539204915364583 L 525.632 417.6085193276405334472656250 L 527.008 417.7238666971524556477864583 L 528.384 401.8006709516048431396484375 L 529.76 424.7689746260643005371093750 L 531.136 411.3460795640945434570312500 L 532.512 428.2846368590990702311197917 L 533.888 435.6168531656265258789062500 L 535.264 431.6075750907262166341145833 L 536.64 437.0650793691476186116536458 L 538.016 427.4803312599658966064453125 L 539.392 425.3412257750829060872395833 L 540.768 429.4861883481343587239583333 L 542.144 439.8218984380364418029785156 L 543.52 426.0132494211196899414062500 L 544.896 424.7225531617800394694010417 L 546.272 415.36950960159301757812500 L 547.648 408.5080713828404744466145833 L 549.024 397.7092891524235407511393229 L 550.4 368.5566578149795532226562500 L 551.776 330.9721647898356119791666667 L 553.152 385.6273088832696278889973958 L 554.528 381.5783873359362284342447917 L 555.904 391.7289705673853556315104167 L 557.28 408.2868589321772257486979167 L 558.656 421.3193508028984069824218750 L 560.032 420.4034417236844698588053386 L 561.408 431.4759654760360717773437500 L 562.784 419.4139013757308324178059896 L 564.16 415.6287325461705525716145833 L 565.536 409.8069944540659586588541667 L 566.912 416.716956377029418945312500 L 568.288 411.7270834525426228841145833 L 569.664 414.5142884771029154459635417 L 571.04 419.8059181471665700276692708 L 572.416 399.6165100768208503723144531 L 573.792 386.6073463678359985351562500 L 575.168 384.7444374362627665201822917 L 576.544 384.7400520881017049153645833 L 577.92 381.9244351565837860107421875 L 579.296 357.0882602334022521972656250 L 580.672 367.0915287415186564127604167 L 582.048 363.6126402159531911214192708 L 583.424 396.073128461837768554687500 L 584.80 393.6297262152036031087239583 L 586.176 325.7948252916336059570312500 L 587.552 315.6965930620829264322916667 L 588.928 320.6537142855425675710042318 L 590.304 383.4285659581422805786132812 L 591.68 421.0557358955343564351399740" fill="none" stroke="#e41a1c" stroke-width="2" /></g><g class="series lines"><path d="M 0 394.8387022728721300760904948 L 1.376 380.3480650136868158976236979 L 2.752 381.2281922470545396208763122 L 4.128 368.9967812236398458480834961 L 5.504 373.3993508355381588141123454 L 6.88 383.3040085852146148681640625 L 8.256 369.8942433705553412437438965 L 9.632 378.2499489454242090384165446 L 11.008 393.8366460050301005442937215 L 12.384 381.7185844302487870057423909 L 13.76 374.9934513434457282225290934 L 15.136 390.8443879416212439537048340 L 16.512 392.6362734855152666568756103 L 17.888 395.4577491469526042540868124 L 19.264 418.3084321681410074234008789 L 20.64 436.5920132632212092479070028 L 22.016 440.0065211911996205647786458 L 23.392 442.7648283951605359713236491 L 24.768 443.5196440970835586388905843 L 26.144 442.2673476206449170907338460 L 27.52 443.1981423096731305122375488 L 28.896 446.3595866464388867219289144 L 30.272 445.0550692485955854256947835 L 31.648 438.5500694952905178070068359 L 33.024 440.7236366725526750087738037 L 34.40 441.9193502491029600302378337 L 35.776 440.4670880223313967386881510 L 37.152 439.0311459736898541450500488 L 38.528 439.2899953161676724751790364 L 39.904 444.5419475510095556577046712 L 41.28 447.2317482715472579002380371 L 42.656 444.6086006233779092629750570 L 44.032 444.2151280866935849189758301 L 45.408 444.4125146079187591870625814 L 46.784 440.5940344503149390220642090 L 48.16 437.4759521373780444264411926 L 49.536 433.4013739871482054392496745 L 50.912 431.2622507333134611447652181 L 52.288 428.0574963288381695747375488 L 53.664 425.6669363485649228096008301 L 55.04 421.1095887233658383289972941 L 56.416 434.4452922077539066473642985 L 57.792 430.7790820604500671227773031 L 59.168 437.0326077843705813090006510 L 60.544 444.4507728846743702888488770 L 61.92 445.5231452997153004010518392 L 63.296 442.6069656904786825180053711 L 64.672 448.5498680811375379562377930 L 66.048 446.1236999205313622951507568 L 67.424 447.1745667491263399521509806 L 68.8 445.0222971057053655385971069 L 70.176 443.5120912372755507628122966 L 71.552 446.2330241244907180468241374 L 72.928 444.0749720289061466852823893 L 74.304 445.5292116909598310788472494 L 75.68 445.4195176756009459495544434 L 77.056 445.2531597581459209322929382 L 78.432 438.6290555596662064393361409 L 79.808 439.6654597649661203225453695 L 81.184 437.4532129127532243728637695 L 82.56 438.4125294979506482680638631 L 83.936 437.4929540976416319608688354 L 85.312 440.5058184379711747169494629 L 86.688 436.5800853031376997629801432 L 88.064 437.1631527149739364782969157 L 89.44 437.8284188142356773217519124 L 90.816 440.4091231944505125284194946 L 92.192 437.9196238125984867413838704 L 93.568 437.3084983751953889926274618 L 94.944 440.6500114336609840393066406 L 96.32 439.0211119852960109710693359 L 97.696 438.4539061932514111200968424 L 99.072 437.9905694134533405303955078 L 100.448 437.5632487589105342825253805 L 101.824 436.5585008763397733370463053 L 103.20 434.7686823457789917786916097 L 104.576 433.4224041927295426527659098 L 105.952 438.8134961071734627087910970 L 107.328 437.4411653007070223490397136 L 108.704 435.8462319144203017155329386 L 110.08 441.6621156013881166776021322 L 111.456 441.7084004126799603303273519 L 112.832 438.1360999380509989957014720 L 114.208 440.0466962234737972418467204 L 115.584 444.1554038694749275843302409 L 116.96 446.0682033350691199302673340 L 118.336 440.7390755161022146542867025 L 119.712 441.4376448964700102806091308 L 121.088 441.5858489584798614184061686 L 122.464 438.0996682653203606605529785 L 123.84 437.9840031810104846954345703 L 125.216 444.5203311463817954063415527 L 126.592 447.8517979586186508337656657 L 127.968 447.3723802449957778056462606 L 129.344 448.0877458990861972173055013 L 130.72 446.8281068553061534961064657 L 132.096 448.8117447171981136004130046 L 133.472 449.9143412980561455090840658 L 134.848 449.4138012214253346125284831 L 136.224 446.6748910206835716962814331 L 137.6 450.3938638528498510519663493 L 138.976 447.5007983875150481859842936 L 140.352 447.1254233975273867448170980 L 141.728 450.4229555310991903146107992 L 143.104 450.8483566370792686939239502 L 144.48 448.3147297811073561509450277 L 145.856 449.2030838502803817391395569 L 147.232 447.5069768561050295829772949 L 148.608 451.0498881058146556218465169 L 149.984 450.5370759711290399233500163 L 151.36 448.5864745108410716056823730 L 152.736 446.3220844051645447810490926 L 154.112 448.1703312315046787261962891 L 155.488 447.5942421945432821909586588 L 156.864 450.7859718295745551586151123 L 158.24 446.4181372331765790780385335 L 159.616 446.5354299594648182392120361 L 160.992 444.0173966324577728907267253 L 162.368 444.2165406619509061177571614 L 163.744 439.2394315065971265236536662 L 165.12 427.0836215552873909473419190 L 166.496 435.1268980077157417933146159 L 167.872 434.7780305301770567893981934 L 169.248 429.2130161222148065765698751 L 170.624 429.9162158419688542683919271 L 172.00 429.2539935742815335591634114 L 173.376 429.0900422325357794761657715 L 174.752 433.3075685034816463788350423 L 176.128 437.6031710371995965639750163 L 177.504 442.1737027836963534355163574 L 178.88 445.0927620434202253818511963 L 180.256 446.5861418301860491434733073 L 181.632 448.9822797226098676522572835 L 183.008 449.8840678959774474302927653 L 184.384 448.6602355823231240113576253 L 185.76 448.6950449273921549320220947 L 187.136 442.4384766349879403909047445 L 188.512 447.0137929884095986684163412 L 189.888 446.1395583445749556024869283 L 191.264 445.9403666187698642412821452 L 192.64 445.5609101039202262957890828 L 194.016 446.4272519696348657210667928 L 195.392 443.7470667813904583454132080 L 196.768 445.5610253939715524514516195 L 198.144 443.6299855701392516493797302 L 199.52 443.6870336374578376611073812 L 200.896 447.8858009312922755877176921 L 202.272 446.7241397507488727569580078 L 203.648 447.9372962513472884893417358 L 205.024 446.7456398271489888429641724 L 206.4 448.4265841205371543765068054 L 207.776 447.4032828472554683685302734 L 209.152 448.9633776885146896044413249 L 210.528 450.6147562453212837378184001 L 211.904 450.7812981482905646165211995 L 213.28 448.0630234187158445517222087 L 214.656 450.2672453950469692548116048 L 216.032 449.7651747059387465318044027 L 217.408 449.3753921377783020337422689 L 218.784 449.9296608905618389447530111 L 220.16 449.6250879810502131779988607 L 221.536 450.3909021385945379734039307 L 222.912 448.6455940103468795617421468 L 224.288 450.0441740935241493086020152 L 225.664 449.5710345827663938204447428 L 227.04 450.4097473328933119773864746 L 228.416 447.9246686925180256366729736 L 229.792 448.7217826001035670439402262 L 231.168 448.6872468430548906326293945 L 232.544 448.7299759254480401674906413 L 233.92 450.0087601432887216409047445 L 235.296 448.9688164961058646440505982 L 236.672 449.7202839939001326759656270 L 238.048 449.8474303027770171562830607 L 239.424 449.5282169347939391930898031 L 240.80 447.3206869966971377531687419 L 242.176 448.4406834611979623635609945 L 243.552 449.8279613812143603960673014 L 244.928 450.9149690024399509032567342 L 246.304 449.5015856166059772173563639 L 247.68 447.1738964060321450233459473 L 249.056 446.4593804374958078066507975 L 250.432 445.4457129611633718013763428 L 251.808 449.1270456416842838128407796 L 253.184 445.2643643258605152368545532 L 254.56 446.6784849307655046383539836 L 255.936 411.3534122880393018325169881 L 257.312 354.1666651808967192967732747 L 258.688 311.9369320497227211793263753 L 260.064 272.9693073794245719909667969 L 261.44 249.4516374649479985237121582 L 262.816 188.1705917187190304199854532 L 264.192 200.3286899998473624388376872 L 265.568 234.2217424706245462099711100 L 266.944 304.9131064147378007570902507 L 268.32 323.5253168592539926369984945 L 269.696 370.1108725955088933308919271 L 271.072 393.6826321323402225971221924 L 272.448 390.1351816430377463499704997 L 273.824 389.5333603014548619588216146 L 275.2 385.8237627023210128148396810 L 276.576 382.3926086058141663670539856 L 277.952 386.0745808804174885153770447 L 279.328 355.9765401826240122318267822 L 280.704 389.4800835276022553443908691 L 282.08 384.9787566901495059331258138 L 283.456 386.3122525114876528580983480 L 284.832 403.6987112114205956459045410 L 286.208 390.7377698242043455441792806 L 287.584 404.2153470905032008886337280 L 288.96 398.9868249236140400171279907 L 290.336 392.5074295475458105405171712 L 291.712 402.3335141214231650034586589 L 293.088 409.3588777760664621988932292 L 294.464 415.3926238875836133956909180 L 295.84 420.7372261793973545233408610 L 297.216 429.4185265132536490758260091 L 298.592 431.2178474073919157187143962 L 299.968 436.7347304680695136388142904 L 301.344 438.2687372875865548849105835 L 302.72 437.7477006919061144193013509 L 304.096 436.6253388629760593175888062 L 305.472 432.8238051119570930798848470 L 306.848 425.9647655096215506394704183 L 308.224 390.5141189144303401311238607 L 309.60 356.6801211449628074963887533 L 310.976 338.9530174031853675842285156 L 312.352 320.1809151597941915194193522 L 313.728 302.3600798890615502993265788 L 315.104 325.4272216118872165679931641 L 316.48 376.7388926759983102480570475 L 317.856 399.0747910207137465476989746 L 319.232 423.4043808678785959879557292 L 320.608 420.6068441611675856014092763 L 321.984 428.9053202185779809951782227 L 323.36 427.9384432053814331690470378 L 324.736 429.4011865710839629173278808 L 326.112 429.2826157626385490099589030 L 327.488 440.0926595785344640413920085 L 328.864 435.3975053717382252216339111 L 330.24 438.1247036980154613653818766 L 331.616 437.9191284368435541788736979 L 332.992 429.3268075255056222279866536 L 334.368 420.3847575973719358444213867 L 335.744 404.1525342533985773722330729 L 337.12 385.2870523442824681599934896 L 338.496 402.7387991864078988631566366 L 339.872 397.4309870040354629357655843 L 341.248 411.4596677152750392754872640 L 342.624 403.6537137109165390332539876 L 344.0 394.9648587750581403573354085 L 345.376 368.9245877876877784729003906 L 346.752 338.3895594647775093714396159 L 348.128 357.6467780355053643385569254 L 349.504 323.4110166347896059354146322 L 350.88 270.5358331001053253809611002 L 352.256 273.3744535926108558972676594 L 353.632 293.7565532866865396499633790 L 355.008 350.8419601788123448689778646 L 356.384 300.9131361174707611401875814 L 357.76 349.8244871054620792468388875 L 359.136 376.8022907257390518983205159 L 360.512 373.2908928315620869398117066 L 361.888 410.6749865524470806121826172 L 363.264 397.7643001219878594080607096 L 364.64 409.9496938239162166913350423 L 366.016 429.9350359865153829256693522 L 367.392 424.1636294820035497347513835 L 368.768 426.3638901223738988240559896 L 370.144 401.8172419364253679911295573 L 371.52 354.6461068850321074326833089 L 372.896 350.2308902135118842124938965 L 374.272 311.0996994098648428916931152 L 375.648 241.3376216660253703594207764 L 377.024 244.4883003992649416128794352 L 378.40 184.7996276280532280604044596 L 379.776 141.6789370079835255940755208 L 381.152 184.3789749320596456527709960 L 382.528 238.2444134848502775033315023 L 383.904 269.2817361546059449513753255 L 385.28 264.4724006466567516326904297 L 386.656 268.4556847957894206047058105 L 388.032 278.7690233427410324414571127 L 389.408 297.6167959673951069513956706 L 390.784 284.4454078797716647386550903 L 392.16 300.5990731668348113695780436 L 393.536 346.3697736268242200215657552 L 394.912 357.7722747637890279293060303 L 396.288 371.2638630970225979884465536 L 397.664 380.4966688721130291620890300 L 399.04 411.2045575754406551520029704 L 400.416 411.2326057686780889828999838 L 401.792 409.0916105529914299647013346 L 403.168 392.8675876352315147717793783 L 404.544 360.2809992260765284299850464 L 405.92 345.1906601033173501491546631 L 407.296 322.0528025186310211817423503 L 408.672 316.3472492358957727750142415 L 410.048 329.8600292921687165896097819 L 411.424 372.3531896242871880531311035 L 412.8 386.1087197228102013468742371 L 414.176 390.1635959148096541563669841 L 415.552 390.2536240853369235992431641 L 416.928 383.7607539107402165730794271 L 418.304 390.1933736248252292474110921 L 419.68 393.0539571950212121009826660 L 421.056 362.9473875915631651878356934 L 422.432 329.7917983481660485267639160 L 423.808 356.2275052721301714579264323 L 425.184 356.2258943837756911913553874 L 426.56 379.1782121129023532072703044 L 427.936 398.5237043083334962526957194 L 429.312 403.5456845690806706746419271 L 430.688 405.6037075924376646677652995 L 432.064 391.1191589646041393280029297 L 433.44 385.0102549596379200617472331 L 434.816 383.9029200449585914611816406 L 436.192 386.0597413989404837290445964 L 437.568 410.9655820757771531740824382 L 438.944 421.4588357818002502123514811 L 440.32 421.0884100874885916709899902 L 441.696 431.0541526315733790397644043 L 443.072 429.6510245516896247863769531 L 444.448 394.1997789987362921237945556 L 445.824 365.6389322898040215174357096 L 447.20 327.7453690253198146820068359 L 448.576 340.0918877246479193369547526 L 449.952 364.3790622007412215073903402 L 451.328 382.8032980720202128092447917 L 452.704 394.0177005336930354436238607 L 454.08 411.3005261523028214772542318 L 455.456 414.9537076023717721303304036 L 456.832 421.5710890431577960650126139 L 458.208 421.8635843234757582346598307 L 459.584 425.7030372663711508115132650 L 460.96 425.9543505426496267318725586 L 462.336 422.7000410864750544230143229 L 463.712 431.1847513324270645777384440 L 465.088 434.2500259117533763249715169 L 466.464 405.2418624810874462127685547 L 467.84 375.4683428164571523666381836 L 469.216 347.8798423827936251958211263 L 470.592 374.4595635047803322474161784 L 471.968 368.2041756359860301017761230 L 473.344 359.6415532805025577545166016 L 474.72 377.0184626982857783635457357 L 476.096 396.4188064889361461003621419 L 477.472 408.8796006392997999986012777 L 478.848 403.0190505918736259142557780 L 480.224 401.5714440967887639999389648 L 481.6 369.9585249804581205050150553 L 482.976 332.8046442887124915917714437 L 484.352 329.6720413383096456527709961 L 485.728 320.1456067418058713277180990 L 487.104 284.6331965833902359008789062 L 488.48 281.5844321834544340769449870 L 489.856 205.5195079876730839411417643 L 491.232 261.9931665084014336268107096 L 492.608 265.8524736194560925165812174 L 493.984 268.9364434965575734774271647 L 495.36 265.0291699420660734176635743 L 496.736 283.2102085261295239130655924 L 498.112 297.6996865836282571156819661 L 499.488 285.5479276395092407862345377 L 500.864 307.0981474302709102630615234 L 502.24 358.0156340364987651507059733 L 503.616 364.0389774267406513293584188 L 504.992 397.8422251974775766332944234 L 506.368 403.9091788514478442569573720 L 507.744 414.6254079428190986315409342 L 509.12 421.4380358407273888587951660 L 510.496 423.9341115522508819897969564 L 511.872 418.2242290328567226727803548 L 513.248 404.3480644025529424349466960 L 514.624 391.5744863197828332583109538 L 516.00 359.3523146793246269226074219 L 517.376 331.7300929893429080645243327 L 518.752 293.5551397723456223805745442 L 520.128 322.3886943101882934570312500 L 521.504 346.9212911509598294893900553 L 522.88 380.2272994947930177052815755 L 524.256 394.9055525337656339009602865 L 525.632 393.5604724204788605372111003 L 527.008 405.5759256857136885325113932 L 528.384 393.5247891865670680999755859 L 529.76 422.0077451278455555438995361 L 531.136 414.9966726720953981081644694 L 532.512 430.7951139554381370544433594 L 533.888 437.9000310081833352645238240 L 535.264 441.6671629333247741063435872 L 536.64 438.9269729614257812500 L 538.016 429.0857959128916263580322266 L 539.392 416.2284696345527966817220052 L 540.768 427.7791552552642921606699626 L 542.144 428.0276481156547864278157552 L 543.52 432.4262660132876286904017130 L 544.896 434.0752950367828210194905599 L 546.272 426.3838016287113229433695475 L 547.648 427.6142908117423454920450846 L 549.024 414.4446536131203174591064453 L 550.4 412.5764148714020848274230957 L 551.776 393.5372943673282861709594727 L 553.152 387.1619372994328538576761882 L 554.528 366.1390090113505721092224121 L 555.904 375.7502658189584811528523763 L 557.28 384.7357343813404440879821777 L 558.656 397.0484219447399179140726725 L 560.032 392.6048839782054225603739421 L 561.408 402.4306829250728090604146322 L 562.784 419.0505683035279313723246256 L 564.16 415.9401085786831875642140706 L 565.536 411.3063057891093194484710694 L 566.912 402.8112337902188301086425781 L 568.288 403.2676183973128596941630046 L 569.664 421.8277316640441616376241048 L 571.04 420.7344379034203787644704183 L 572.416 402.2271290396029750506083171 L 573.792 395.2777317300128440062204997 L 575.168 401.7871521537502606709798177 L 576.544 399.3390198187281688054402669 L 577.92 389.1942229293907682100931803 L 579.296 395.0748106058686971664428711 L 580.672 388.2778979027643799781799316 L 582.048 371.6276340115194519360860189 L 583.424 379.6671592765798171361287435 L 584.80 398.2116448909044265747070312 L 586.176 391.8003560993820428848266602 L 587.552 397.8613224256783723831176758 L 588.928 397.75168542861938476562500 L 590.304 407.6094414218018452326456706 L 591.68 426.7850316066294908523559570" fill="none" stroke="#377eb8" stroke-width="2" /></g><g class="series lines"><path d="M 0 429.8505483734266211589177450 L 1.376 438.3561369784642010927200317 L 2.752 438.5762621090126534303029378 L 4.128 439.6216600030893459916114807 L 5.504 437.8899670656537637114524841 L 6.88 438.4775861800182610750198364 L 8.256 439.7259977474808692932128906 L 9.632 439.2972879387224869181712468 L 11.008 438.2172949654865078628063202 L 12.384 438.7740833441688058276971181 L 13.76 437.3267520530964247882366180 L 15.136 437.9091130902835478385289510 L 16.512 437.8082999468160172303517659 L 17.888 433.8512134064687415957450867 L 19.264 438.8016288245329633355140686 L 20.64 439.5007804452752073605855306 L 22.016 439.6338003062875941395759582 L 23.392 439.5282433733964959780375163 L 24.768 438.0421804893645457923412323 L 26.144 440.0299179628957062959671020 L 27.52 438.3244518943596631288528442 L 28.896 440.8116939263883978128433228 L 30.272 440.5063934057562922437985738 L 31.648 439.9840111971910422046979268 L 33.024 438.6649190527425768474737803 L 34.40 436.8124310340033844113349914 L 35.776 438.7345520660902063051859538 L 37.152 440.2654878468873600165049235 L 38.528 438.9764536021587749322255452 L 39.904 437.6094560191811372836430868 L 41.28 438.2949845779997607072194417 L 42.656 439.0980890638971080382664998 L 44.032 438.7496491115074604749679566 L 45.408 439.1612445463115970293680827 L 46.784 439.5451558234402909874916077 L 48.16 439.8071142851452653606732686 L 49.536 438.8735188231104984879493713 L 50.912 439.2940640448282162348429362 L 52.288 437.7426433073667188485463460 L 53.664 438.8882359602566187580426534 L 55.04 437.7829606253110493222872416 L 56.416 440.1670446733284431199232737 L 57.792 438.5398899310501292347908020 L 59.168 436.1665114744876821835835775 L 60.544 438.9653221849973003069559733 L 61.92 439.8806096425745636224746704 L 63.296 438.7305558266273389259974162 L 64.672 439.4172719529441868265469869 L 66.048 434.9828917848722388346989950 L 67.424 436.7377574157125006119410197 L 68.8 439.7656768772363041838010152 L 70.176 439.4105740946135483682155609 L 71.552 440.3921053409498805801073710 L 72.928 437.2907636657667656739552816 L 74.304 437.5648441460216417908668518 L 75.68 434.8839903874012331167856852 L 77.056 432.5698546993235747019449870 L 78.432 434.5917071670914689699808756 L 79.808 435.1818686890415847301483154 L 81.184 432.2238764986085395018259684 L 82.56 432.6756726767052896320819855 L 83.936 433.7140389998132983843485514 L 85.312 435.2891558446921408176422119 L 86.688 435.3555908754002302885055542 L 88.064 434.4069215012869487206141154 L 89.44 436.1190434276203935345013936 L 90.816 437.3131625843700021505355835 L 92.192 438.6700045241819073756535848 L 93.568 439.3025589607500781615575155 L 94.944 440.3231853522205104430516561 L 96.32 433.9302882890061785777409872 L 97.696 438.1543488070679207642873128 L 99.072 439.5737352261164536078770955 L 100.448 438.6932284314883872866630554 L 101.824 438.9999646878490845362345378 L 103.20 436.9786486283449145654837290 L 104.576 435.8416308783460408449172974 L 105.952 438.3724870284398396809895833 L 107.328 438.3038844366829531888167063 L 108.704 438.7646268198421845833460490 L 110.08 439.7860015586484223604202270 L 111.456 438.5269986161729320883750916 L 112.832 441.7393885124009102582931519 L 114.208 439.5950138569285627454519272 L 115.584 437.8444959910974527398745219 L 116.96 437.7276126937203419705231984 L 118.336 436.2624700983520597219467163 L 119.712 435.4517682845704257488250732 L 121.088 433.5044749133211250106493632 L 122.464 433.9707988214523841937383016 L 123.84 435.0196829439140856266021728 L 125.216 431.5699237401286760965983073 L 126.592 428.0098530459838608900705973 L 127.968 431.8002778466480473677317302 L 129.344 431.5155268999185257901748022 L 130.72 430.4083099187041322390238444 L 132.096 430.7940639782541741927464803 L 133.472 431.4574763663966829578081767 L 134.848 431.8616898599158351620038350 L 136.224 434.9672277821926400065422058 L 137.6 435.3907722417420397202173869 L 138.976 435.7032617644096414248148600 L 140.352 438.5067389289538065592447917 L 141.728 438.8639521352636317412058512 L 143.104 439.1098805221806590755780538 L 144.48 438.3231474790993767480055491 L 145.856 439.8459001293328280250231425 L 147.232 439.9416504983479777971903483 L 148.608 438.8688827326986938714981079 L 149.984 439.8572425656486302614212036 L 151.36 438.1216001182872181137402852 L 152.736 438.6559473546144242087999980 L 154.112 438.4360474019388978679974874 L 155.488 440.1076844582023719946543376 L 156.864 439.0111003330443054437637329 L 158.24 438.2417928994400426745414734 L 159.616 440.5240903442027047276496887 L 160.992 438.4218835602902496854464213 L 162.368 438.4481907659365485111872355 L 163.744 439.9566604752947265903155009 L 165.12 439.5040366769069805741310120 L 166.496 439.2929530465820183356602987 L 167.872 439.5277429027056011060873667 L 169.248 438.0682481846461693445841471 L 170.624 439.3162239411845803260803223 L 172.00 438.9475149422806377212206523 L 173.376 438.3589221063535660505294800 L 174.752 437.9816824545928587516148885 L 176.128 435.0235209803717831770579020 L 177.504 433.8802479697585416336854299 L 178.88 431.9040675152520028253396352 L 180.256 431.7123773731446514527002970 L 181.632 434.0138249507949997981389364 L 183.008 431.9264086739625781774520874 L 184.384 432.6480913631928463776906331 L 185.76 432.1841918309607232610384623 L 187.136 434.1314479194348677992820740 L 188.512 436.6471672537115712960561116 L 189.888 437.4487212502319986621538798 L 191.264 437.2655910374286274115244548 L 192.64 439.4164449057386567195256551 L 194.016 438.9794045042789851625760396 L 195.392 438.1198736187536269426345825 L 196.768 437.5653129636698092023531596 L 198.144 438.5097894951080282529195150 L 199.52 438.3204753015267973144849141 L 200.896 438.9470390803491075833638509 L 202.272 438.9547616880542288223902384 L 203.648 430.3958003252473038931687673 L 205.024 437.0016438497385631004969279 L 206.4 437.0845410406123846769332886 L 207.776 438.9469254630540187160174052 L 209.152 437.7744237314366425077120463 L 210.528 438.3191146559702853361765544 L 211.904 439.1198802068441485365231832 L 213.28 438.0962605628534220159053802 L 214.656 438.4654064096976071596145630 L 216.032 439.6523733430483844131231308 L 217.408 439.0496643811076258619626363 L 218.784 439.6077201254898682236671448 L 220.16 440.0954788547222657750050227 L 221.536 437.5485756223400433858235677 L 222.912 438.9493222367794563372929891 L 224.288 439.7451263801582778493563334 L 225.664 439.0104779938235878944396973 L 227.04 437.6576866711722686886787414 L 228.416 438.1984692460081229607264201 L 229.792 439.3037398224075635274251302 L 231.168 438.1848161760407189528147380 L 232.544 440.4789056187029927968978882 L 233.92 440.7512903235571381325523059 L 235.296 440.1637137511046603322029114 L 236.672 439.5156998038524761795997620 L 238.048 435.2739438858659317096074422 L 239.424 439.7815885921590961515903473 L 240.80 439.4201856981342037518819173 L 242.176 439.7961144770029932260513306 L 243.552 438.8695217491884250193834305 L 244.928 439.4080652455954502026240031 L 246.304 423.4579153468677153189977010 L 247.68 424.4399558990146033465862274 L 249.056 429.9346244443906471133232117 L 250.432 437.1657872293804151316483816 L 251.808 438.5152254776136639217535655 L 253.184 437.3026608116847152511278788 L 254.56 437.9776454934850335121154785 L 255.936 435.8858961200341582298278808 L 257.312 438.8830685898972054322560628 L 258.688 435.9810612523152182499567668 L 260.064 439.2533720725060751040776571 L 261.44 439.4391267366707324981689453 L 262.816 439.8567927636206150054931641 L 264.192 441.2583343150753838320573171 L 265.568 438.5125707944544653097788493 L 266.944 439.3425007457224031289418538 L 268.32 437.5532981866272166371345520 L 269.696 438.3989679788549741109212240 L 271.072 439.4865096921722094217936198 L 272.448 436.4181394727745403846104940 L 273.824 425.1539590981478492418924967 L 275.2 423.2454737299742798010508219 L 276.576 420.5724707140432049830754598 L 277.952 425.3445251197709391514460246 L 279.328 427.7055119618152578671773275 L 280.704 429.6871112095657736063003540 L 282.08 436.8025835394548873106638591 L 283.456 435.0532840448897331953048706 L 284.832 438.2446539557538926601409912 L 286.208 438.2767518634597460428873698 L 287.584 439.5414527470478788018226624 L 288.96 440.4230754335954164465268453 L 290.336 440.3171226824168115854263306 L 291.712 439.3642728989322980244954427 L 293.088 438.4838453439685205618540446 L 294.464 439.1827358874647567669550578 L 295.84 437.9918658943225940068562826 L 297.216 433.8299467526609078049659729 L 298.592 431.2633620421557376782099406 L 299.968 434.9103012496915956338246663 L 301.344 437.3104001207121958335240682 L 302.72 434.9928637386610110600789388 L 304.096 438.7241703521770735581715902 L 305.472 438.1141263387398794293403625 L 306.848 437.7850561037038763364156087 L 308.224 437.2401417777640745043754578 L 309.60 438.3591602467931807041168213 L 310.976 437.3755927792439858118693034 L 312.352 438.1215979055579130848248800 L 313.728 437.3361456209366830686728160 L 315.104 437.4775734276665995518366496 L 316.48 432.4416543901509915788968404 L 317.856 413.8765447611920535564422608 L 319.232 409.7534591364674270153045654 L 320.608 403.4000338328226159016291300 L 321.984 405.8284776855570574601491292 L 323.36 418.2476967177431409557660421 L 324.736 426.1370703860962142546971639 L 326.112 426.7201444118438909451166789 L 327.488 416.2180726876870418588320414 L 328.864 417.8739023392399152119954427 L 330.24 424.6825918156808863083521525 L 331.616 427.3612975084222853183746338 L 332.992 433.2622823007094363371531169 L 334.368 435.2995382162121435006459554 L 335.744 433.8798205892865856488545736 L 337.12 435.5485222352125371495882670 L 338.496 437.9682404923175151149431864 L 339.872 438.1336326835599417487780253 L 341.248 438.6325804269174113869667053 L 342.624 437.8565667743251348535219828 L 344.0 437.7054945651286592086156209 L 345.376 437.9654685694918346901734670 L 346.752 438.1778715092300747831662496 L 348.128 437.0860113945944855610529582 L 349.504 438.6535788576273868481318156 L 350.88 438.5038910735088090101877848 L 352.256 438.2782912686622391144434611 L 353.632 437.9070108712418004870414734 L 355.008 436.4685196283118178447087606 L 356.384 436.7918811607950677474339803 L 357.76 433.8184907392579286048809687 L 359.136 424.7961824901421399166186651 L 360.512 430.7628598032674441734949748 L 361.888 429.8564275341418882211049398 L 363.264 429.6461230874527245759963989 L 364.64 431.6770765802900617321332296 L 366.016 431.9286005776220311721165975 L 367.392 433.4586852391250431537628174 L 368.768 434.6887569064119209845860799 L 370.144 434.7692912552893782655398051 L 371.52 434.3022127825456360975901286 L 372.896 433.1634467521061499913533529 L 374.272 434.0675900425529107451438904 L 375.648 435.7193595050523678461710612 L 377.024 435.6918078781881680091222127 L 378.40 350.7249199721341331799825033 L 379.776 332.0408895088359713554382324 L 381.152 378.6019057459741209944089254 L 382.528 409.9892563510841379563013713 L 383.904 419.7522623134699339667956034 L 385.28 426.5977638244008024533589681 L 386.656 431.7243682892682651678721110 L 388.032 434.2520613278262317180633545 L 389.408 435.1559107167335848013559977 L 390.784 434.8407180421209583679835002 L 392.16 437.4358244401247551043828328 L 393.536 437.7428635051706805825233460 L 394.912 437.4443076369352638721466064 L 396.288 436.2761518534738570451736450 L 397.664 436.1677587171318009495735168 L 399.04 436.9104361127751568953196208 L 400.416 435.8840004622004926204681397 L 401.792 436.1598264144112666447957357 L 403.168 435.7429874630489697058995565 L 404.544 435.0460223042871803045272827 L 405.92 433.6935906310100108385086060 L 407.296 434.7925460108555853366851807 L 408.672 430.5177742734318599104881287 L 410.048 435.9074665083355891207853953 L 411.424 437.5814226503018289804458618 L 412.8 436.2790010855377962191899618 L 414.176 437.8556442502420395612716675 L 415.552 433.6529948167347659667332967 L 416.928 434.0571993832049580911795298 L 418.304 434.6116354825673624873161316 L 419.68 435.0281389696368326743443807 L 421.056 431.1551318848583226402600606 L 422.432 431.0895432057945678631464640 L 423.808 433.7950225004305442174275716 L 425.184 433.5536028202623128890991211 L 426.56 433.2743331968629111846288045 L 427.936 433.7338838963226104776064555 L 429.312 431.1849005128839053213596344 L 430.688 410.9265893920945624510447184 L 432.064 384.9540305140428245067596435 L 433.44 380.5722542128836115201314290 L 434.816 383.1742776328620190421740214 L 436.192 388.4687740252974132696787516 L 437.568 393.6537788119477530320485433 L 438.944 379.3965518722155441840489705 L 440.32 393.2360637558003266652425130 L 441.696 404.3068776360402504603068034 L 443.072 421.5240908976333836714426676 L 444.448 420.2651037464694430430730184 L 445.824 418.9399129802749181787172953 L 447.20 424.7017074838280677795410156 L 448.576 426.4145694476241866747538249 L 449.952 430.3813969516350577274958293 L 451.328 425.3691835568364088733990987 L 452.704 429.3251881278896083434422811 L 454.08 430.0130017816865195830663045 L 455.456 431.6333644036514063676198324 L 456.832 432.1344603580112258593241374 L 458.208 434.8094688424840569496154785 L 459.584 419.3867440884311993916829427 L 460.96 428.4138372221340735753377279 L 462.336 433.6310097945388406515121460 L 463.712 434.7475207798338184754053752 L 465.088 429.6928786199539899826049805 L 466.464 429.0854130018347253402074178 L 467.84 423.6238554106714824835459391 L 469.216 422.2523961148457601666450500 L 470.592 426.3280816521961241960525513 L 471.968 427.3341246131341904401779175 L 473.344 422.4033926953251163164774577 L 474.72 427.4241680642745147148768107 L 476.096 426.6063297936382393042246501 L 477.472 431.2621303962543606758117676 L 478.848 427.6778003040701150894165039 L 480.224 410.1074930313353737195332845 L 481.6 409.8977992750859508911768595 L 482.976 391.5791525474749505519866944 L 484.352 402.0985764243329564730326335 L 485.728 407.9892822882315764824549357 L 487.104 413.5802317288393775622049967 L 488.48 424.1370351843691120545069376 L 489.856 431.1407133435364812612533569 L 491.232 432.0154567253620674212773641 L 492.608 435.0293133617922042806943258 L 493.984 434.9976385939400643110275269 L 495.36 437.2470261003977308670679728 L 496.736 431.7583224627907232691844304 L 498.112 434.8088261992049713929494222 L 499.488 434.0316088711377233266830444 L 500.864 437.4108184151661892731984456 L 502.24 438.4855164881407593687375387 L 503.616 438.4307319453044328838586807 L 504.992 440.6759398804201434055964152 L 506.368 438.3304481219500303268432617 L 507.744 439.3491317573507937292257945 L 509.12 437.0878695634814600149790446 L 510.496 437.3888651926536113023757934 L 511.872 435.5308029404530922571818034 L 513.248 435.7692936590795094768206278 L 514.624 435.0010529121034778654575348 L 516.00 433.7904126432491466403007507 L 517.376 430.0215766187990084290504456 L 518.752 429.4846497497676561276117961 L 520.128 433.5116932361619547009468079 L 521.504 434.2920440443636228640874227 L 522.88 434.6567921955138444900512695 L 524.256 430.2919870108210792144139608 L 525.632 420.8048033739905804395675659 L 527.008 417.9462579516849170128504435 L 528.384 418.7601189063706745704015096 L 529.76 420.9252481835118184487024943 L 531.136 424.6937690093492468198140462 L 532.512 429.6467003806028515100479126 L 533.888 434.7100222078772882620493571 L 535.264 435.4190764059545472264289856 L 536.64 433.6149062776123173534870148 L 538.016 404.7709364560432732105255127 L 539.392 389.1099842379956195751825968 L 540.768 404.8518469597989072402318319 L 542.144 417.6999591823356846968332926 L 543.52 427.8427781762089580297470093 L 544.896 430.7733267268942048152287801 L 546.272 426.2960469158055881659189860 L 547.648 432.1443048611981794238090515 L 549.024 433.8580012866994366049766540 L 550.4 436.7351106897927820682525635 L 551.776 437.0387212739403670032819112 L 553.152 437.4428882485566039880116781 L 554.528 437.1748562821536324918270111 L 555.904 438.5222909544284145037333171 L 557.28 439.1910596010430405537287394 L 558.656 438.8222333069580296675364176 L 560.032 437.6388958613543460766474406 L 561.408 436.6392862862752129634221395 L 562.784 438.2829327967367134988307953 L 564.16 436.7940230213571339845657349 L 565.536 430.0287298751529306173324585 L 566.912 436.5860110803972929716110230 L 568.288 437.2157453652626524368921916 L 569.664 436.6637321379967033863067627 L 571.04 437.5418230724356059605876605 L 572.416 435.1873618696893875797589620 L 573.792 436.9730685017692546049753825 L 575.168 436.1220247454863662521044413 L 576.544 433.9424335669182861844698588 L 577.92 436.4565062246751040220260620 L 579.296 437.9945785768368902305761973 L 580.672 433.6977739746216684579849243 L 582.048 434.5380716626221934954325358 L 583.424 432.1701898775218675533930461 L 584.80 433.7510249572185178597768148 L 586.176 435.0509877099034686883290609 L 587.552 436.1714889255197097857793172 L 588.928 430.5565502785068626205126444 L 590.304 416.2119916218488166729609172 L 591.68 417.2401818651938810944557190" fill="none" stroke="#4daf4a" stroke-width="2" /></g></g></g></g></g></g></svg>